<svg xmlns="http://www.w3.org/2000/svg" width="400" height="400" viewBox="182 -182 400 400" enable-background="new 182 -182 400 400"><polygon fill="#1A1A1A" points="211,-143.6 210.3,-144.3 196.8,-130.6 196.8,-182 195.9,-182 195.9,-130.9 182.7,-144.3 182,-143.6 195.9,-129.5 195.9,-129.5 195.9,-129.5 196.4,-129 196.5,-129.1 196.6,-129"/><polygon fill="#1A1A1A" points="207.5,25.5 200,18 199.2,18.8 205.5,25 182,25 182,26 205.5,26 199.2,31.2 200,32"/><polygon points="302,-181.3 301.3,-182 292,-172.7 282.7,-182 282,-181.3 291.3,-172 282,-162.7 282.7,-162 292,-171.3 301.3,-162 302,-162.7 292.7,-172"/><path fill="#ccc" d="M241.3-65.8c.3.5.5 1 .5 1.6 0 .7-.2 1.2-.5 1.6-.2.2-.5.4-.9.6.6.2 1 .5 1.3.9s.4 1 .4 1.6-.2 1.2-.5 1.7c-.2.3-.5.6-.8.8-.4.3-.8.4-1.3.5s-1 .1-1.6.1h-5v-10.7h5.4c1.5.1 2.4.5 3 1.3zm-6.1.7v2.4h2.7c.5 0 .9-.1 1.2-.3s.5-.5.5-.9c0-.5-.2-.8-.6-1-.3-.1-.8-.2-1.3-.2h-2.5zm0 4.1v2.9h2.7c.5 0 .9-.1 1.1-.2.5-.2.7-.7.7-1.3s-.2-.9-.7-1.1c-.3-.1-.6-.2-1.1-.2l-2.7-.1zm13.6-3c.6.2 1.1.6 1.4 1.2.3.5.6 1 .7 1.6.1.4.1.9.1 1.6h-6c0 .8.3 1.4.9 1.7.3.2.7.3 1.2.3s.9-.1 1.2-.4c.2-.1.3-.3.4-.5h2.2c-.1.5-.3.9-.8 1.4-.7.8-1.8 1.2-3.1 1.2-1.1 0-2.1-.3-2.9-1-.8-.7-1.3-1.7-1.3-3.2 0-1.4.4-2.4 1.1-3.2.8-.7 1.7-1.1 3-1.1.7 0 1.4.1 1.9.4zm-3.2 1.8c-.3.3-.5.7-.6 1.2h3.7c0-.5-.2-1-.6-1.3-.3-.3-.8-.4-1.3-.4s-.9.2-1.2.5zm3.6-4.2h-4.9v1.1h4.9v-1.1z"/><path fill="#ccc" d="M290-66.5c-.6.3-1.2.4-1.9.5.7-.4 1.2-1 1.4-1.8-.6.4-1.3.6-2.1.8-.6-.6-1.5-1-2.4-1-2.1 0-3.7 2-3.2 4-2.7-.1-5.1-1.4-6.8-3.4-.9 1.5-.4 3.4 1 4.4-.5 0-1-.2-1.5-.4 0 1.5 1.1 2.9 2.6 3.3-.5.1-1 .2-1.5.1.4 1.3 1.6 2.3 3.1 2.3-1.4 1.1-3.1 1.6-4.9 1.4 1.5.9 3.2 1.5 5 1.5 6.1 0 9.5-5.1 9.3-9.8.9-.6 1.5-1.2 1.9-1.9z"/><path fill="#ccc" d="M203.3-54h-3.5v-8h-1.8v-2.8h1.8v-1.7c0-2.2 1-3.6 3.8-3.6h2.4v2.8h-1.5c-1.1 0-1.2.4-1.2 1.1v1.4h2.7l-.3 2.8h-2.4v8z"/><path d="M391.3-65.8c.3.5.5 1 .5 1.6 0 .7-.2 1.2-.5 1.6-.2.2-.5.4-.9.6.6.2 1 .5 1.3.9s.4 1 .4 1.6-.2 1.2-.5 1.7c-.2.3-.5.6-.8.8-.4.3-.8.4-1.3.5s-1 .1-1.6.1h-5v-10.7h5.4c1.5.1 2.4.5 3 1.3zm-6.1.7v2.4h2.7c.5 0 .9-.1 1.2-.3.3-.2.5-.5.5-.9 0-.5-.2-.8-.6-1-.3-.1-.8-.2-1.3-.2h-2.5zm0 4.1v2.9h2.7c.5 0 .9-.1 1.1-.2.5-.2.7-.7.7-1.3s-.2-.9-.7-1.1c-.3-.1-.6-.2-1.1-.2l-2.7-.1zm13.6-3c.6.2 1.1.6 1.4 1.2.3.5.6 1 .7 1.6.1.4.1.9.1 1.6h-6c0 .8.3 1.4.9 1.7.3.2.7.3 1.2.3s.9-.1 1.2-.4c.2-.1.3-.3.4-.5h2.2c-.1.5-.3.9-.8 1.4-.7.8-1.8 1.2-3.1 1.2-1.1 0-2.1-.3-2.9-1s-1.3-1.7-1.3-3.2c0-1.4.4-2.4 1.1-3.2.8-.7 1.7-1.1 3-1.1.7 0 1.4.1 1.9.4zm-3.2 1.8c-.3.3-.5.7-.6 1.2h3.7c0-.5-.2-1-.6-1.3-.3-.3-.8-.4-1.3-.4s-.9.2-1.2.5zm3.6-4.2h-4.9v1.1h4.9v-1.1z"/><path d="M440-66.5c-.6.3-1.2.4-1.9.5.7-.4 1.2-1 1.4-1.8-.6.4-1.3.6-2.1.8-.6-.6-1.5-1-2.4-1-2.1 0-3.7 2-3.2 4-2.7-.1-5.1-1.4-6.8-3.4-.9 1.5-.4 3.4 1 4.4-.5 0-1-.2-1.5-.4 0 1.5 1.1 2.9 2.6 3.3-.5.1-1 .2-1.5.1.4 1.3 1.6 2.3 3.1 2.3-1.4 1.1-3.1 1.6-4.9 1.4 1.5.9 3.2 1.5 5 1.5 6.1 0 9.5-5.1 9.3-9.8.9-.6 1.5-1.2 1.9-1.9z"/><path d="M353.3-54h-3.5v-8h-1.8v-2.8h1.8v-1.7c0-2.2 1-3.6 3.8-3.6h2.4v2.8h-1.5c-1.1 0-1.2.4-1.2 1.1v1.4h2.7l-.3 2.8h-2.4v8z"/><polygon fill="#1A1A1A" points="204,-18 189,-3 189,-2 204,-16.9 219,-2 219,-3"/><polygon fill="#fff" points="561.5,-152 546.5,-167 546.5,-137"/><g stroke="#B2B2B2" stroke-width=".5" stroke-linecap="square" stroke-miterlimit="10" fill="none"><line x1="245.8" y1="-131.9" x2="232" y2="-145.6"/><line x1="246" y1="-131.9" x2="259.8" y2="-145.6"/><line x1="246" y1="-172" x2="246" y2="-131.6"/></g></svg>